<?xml version="1.0" standalone="no"?>
<!DOCTYPE svg PUBLIC "-//W3C//DTD SVG 20010904//EN"
 "http://www.w3.org/TR/2001/REC-SVG-20010904/DTD/svg10.dtd">
<svg version="1.0" xmlns="http://www.w3.org/2000/svg"
 width="500.000000pt" height="500.000000pt" viewBox="0 0 500.000000 500.000000"
 preserveAspectRatio="xMidYMid meet">

<g transform="translate(0.000000,500.000000) scale(0.100000,-0.100000)"
fill="#000000" stroke="none">
<path d="M0 2500 l0 -2500 1680 0 c1673 0 1680 0 1680 20 0 11 7 20 15 20 13
0 15 96 15 801 0 531 3 798 10 794 6 -3 10 -2 10 3 0 5 -11 10 -25 9 -14 0
-37 9 -52 19 -16 10 -31 18 -34 17 -3 -1 -5 27 -4 63 2 52 7 70 26 90 12 13
30 24 38 24 14 0 14 2 1 11 -12 8 -10 9 10 5 24 -5 25 -4 22 39 -3 30 -9 45
-18 45 -8 0 -14 4 -14 10 0 5 37 11 83 13 l82 3 -82 2 c-46 1 -83 6 -83 11 0
11 102 21 221 21 59 0 99 4 99 10 0 6 7 10 15 10 13 0 15 47 15 360 0 304 -2
360 -14 360 -8 0 -16 4 -18 9 -1 5 -91 12 -197 16 -107 3 -197 7 -199 9 -2 2
33 7 78 11 54 5 80 11 77 19 -2 6 -14 10 -25 10 -19 -1 -22 4 -22 42 0 32 4
44 18 47 9 3 -7 5 -37 6 -83 2 -53 12 51 18 51 3 95 7 97 9 2 2 -27 5 -65 6
-38 1 -76 2 -84 4 -8 1 -24 3 -35 4 -32 4 93 18 175 19 41 1 93 6 115 12 54
14 155 60 155 71 0 4 5 8 10 8 10 0 33 22 70 67 39 46 60 84 93 163 l35 85
-332 5 c-182 3 -316 6 -298 8 l32 2 0 795 0 795 -1695 0 -1695 0 0 -2500z
m2040 903 c136 -42 255 -122 327 -218 56 -74 76 -114 108 -211 38 -117 35
-125 -27 -69 -118 106 -227 156 -427 196 -88 17 -142 21 -326 20 -302 0 -381
9 -471 54 -78 38 -159 116 -194 186 -39 76 -76 71 463 67 451 -4 486 -6 547
-25z m207 -424 c102 -43 200 -136 232 -222 49 -133 11 -335 -92 -487 -70 -103
-195 -195 -321 -237 -81 -27 -82 -27 -428 -31 l-348 -3 0 351 0 350 48 -1 c95
-1 188 -63 233 -156 17 -35 23 -70 27 -144 l5 -99 117 0 c205 0 302 31 387
123 117 129 132 376 32 540 -16 26 -29 50 -29 53 0 11 59 -5 137 -37z m280
-401 c-3 -8 -6 -5 -6 6 -1 11 2 17 5 13 3 -3 4 -12 1 -19z m-317 -673 c0 -20
-5 -25 -25 -25 -20 0 -25 5 -25 25 0 20 5 25 25 25 20 0 25 -5 25 -25z m-791
-9 c37 -24 52 -121 27 -181 -19 -45 -42 -55 -125 -55 l-71 0 0 123 c0 68 2
126 4 128 7 7 150 -6 165 -15z m1313 1 c7 -36 0 -43 -37 -39 l-35 4 0 -100 c0
-56 -3 -103 -7 -105 -5 -2 -19 -1 -33 2 -25 6 -25 8 -25 101 l0 95 -36 3 c-30
2 -38 8 -41 27 -3 13 0 26 6 29 6 2 54 5 107 5 93 1 97 0 101 -22z m160 -62
c-11 -24 -23 -35 -37 -35 -34 0 -45 -20 -45 -85 0 -61 0 -62 -27 -58 l-28 5 2
96 1 97 67 2 c37 1 69 4 72 7 12 11 11 6 -5 -29z m423 15 c-10 -11 -20 -18
-23 -15 -7 6 18 35 31 35 5 0 2 -9 -8 -20z m-1645 -97 l0 -94 -37 1 c-21 0
-52 -2 -70 -6 -24 -5 -36 -1 -52 15 -18 18 -21 33 -21 101 l0 80 30 0 c26 0
30 -4 29 -22 -1 -13 -1 -47 -1 -75 2 -45 5 -53 21 -53 30 0 41 23 42 86 1 32
3 62 5 65 2 4 15 4 29 1 25 -4 25 -6 25 -99z m213 98 c13 -1 8 -216 -6 -235
-16 -21 -78 -36 -123 -29 -39 6 -47 14 -38 38 5 13 15 15 45 10 36 -6 79 7 79
24 0 4 -22 6 -49 3 -42 -4 -50 -1 -65 19 -10 15 -16 44 -16 77 0 43 5 58 25
78 22 22 31 24 82 20 32 -3 61 -5 66 -5z m102 -1 c4 -7 12 -7 25 0 10 5 29 10
42 10 46 0 53 -14 58 -110 l5 -90 -27 0 c-27 0 -27 1 -30 72 -2 58 -6 73 -19
76 -32 6 -49 -26 -49 -89 0 -58 -1 -59 -27 -59 l-28 0 2 93 c1 50 2 95 2 100
1 11 39 9 46 -3z m225 -90 l0 -100 -25 0 c-25 0 -25 0 -25 94 0 66 4 96 13 99
34 14 37 8 37 -93z m185 88 c46 -21 19 -51 -38 -41 -33 5 -38 3 -47 -22 -7
-17 -7 -38 -2 -54 7 -21 15 -26 38 -24 74 4 100 -24 44 -47 -40 -17 -100 -6
-122 21 -33 39 -16 156 24 172 24 10 77 7 103 -5z m661 -2 c15 -12 20 -30 24
-99 3 -58 1 -88 -7 -96 -7 -6 -14 -7 -17 -2 -3 5 -31 6 -61 4 -66 -6 -95 12
-95 59 0 38 28 64 79 72 26 4 39 10 35 17 -4 7 -23 8 -49 5 -30 -5 -45 -3 -54
8 -30 36 100 65 145 32z m114 -38 c17 -53 37 -79 26 -33 -4 16 -4 26 0 22 5
-5 13 7 20 25 8 25 17 34 37 36 17 2 27 -1 27 -9 0 -10 -49 -174 -56 -187 -3
-6 -46 -11 -58 -6 -8 3 -17 21 -21 40 -4 22 -10 32 -17 28 -7 -4 -8 -3 -4 4 4
6 2 30 -4 53 -9 31 -14 39 -20 28 -7 -11 -8 17 -1 49 1 2 13 2 29 0 22 -2 29
-11 42 -50z m17 20 c-3 -8 -6 -5 -6 6 -1 11 2 17 5 13 3 -3 4 -12 1 -19z m83
-93 c0 -8 -4 -15 -10 -15 -5 0 -7 7 -4 15 4 8 8 15 10 15 2 0 4 -7 4 -15z m13
-40 c-3 -9 -8 -14 -10 -11 -3 3 -2 9 2 15 9 16 15 13 8 -4z m-10 -32 c-7 -2
-19 -2 -25 0 -7 3 -2 5 12 5 14 0 19 -2 13 -5z m42 -3 c3 -5 1 -10 -4 -10 -6
0 -11 5 -11 10 0 6 2 10 4 10 3 0 8 -4 11 -10z"/>
<path d="M1310 1785 l0 -75 29 0 c36 0 61 31 61 75 0 44 -25 75 -61 75 l-29 0
0 -75z"/>
<path d="M1770 1791 c-24 -47 0 -88 45 -77 21 5 25 12 25 45 0 26 -5 41 -16
45 -27 10 -43 7 -54 -13z"/>
<path d="M2975 1732 c-16 -11 -16 -32 -1 -32 25 0 46 12 46 26 0 15 -28 19
-45 6z"/>
<path d="M3450 1945 c0 -8 5 -15 10 -15 6 0 10 7 10 15 0 8 -4 15 -10 15 -5 0
-10 -7 -10 -15z"/>
<path d="M3414 1869 c-3 -5 4 -9 15 -9 24 0 49 -33 57 -77 7 -36 24 -46 21
-13 -1 11 -5 20 -9 20 -4 0 -7 3 -6 8 2 13 -20 60 -34 68 -19 12 -37 13 -44 3z"/>
<path d="M3480 1865 c7 -9 15 -13 17 -11 7 7 -7 26 -19 26 -6 0 -6 -6 2 -15z"/>
<path d="M3638 1868 c-16 -5 -28 -14 -28 -20 0 -7 4 -7 13 -1 6 6 26 15 42 21
17 6 23 10 15 10 -8 0 -27 -4 -42 -10z"/>
<path d="M3377 1799 c17 -17 45 -21 40 -6 -2 7 -14 14 -28 15 -19 3 -22 1 -12
-9z"/>
<path d="M3629 1736 c8 -9 24 -22 35 -28 19 -10 20 -10 7 6 -8 9 -24 22 -35
28 -19 10 -20 10 -7 -6z"/>
<path d="M3370 1728 c0 -22 15 -31 40 -23 24 8 27 25 4 25 -8 0 -12 -4 -9 -10
3 -5 2 -10 -4 -10 -5 0 -15 8 -20 18 -10 16 -10 16 -11 0z"/>
<path d="M3604 1721 c0 -11 5 -17 13 -14 10 4 11 9 2 19 -15 18 -15 18 -15 -5z"/>
<path d="M3455 1715 c11 -8 26 -19 33 -26 7 -6 16 -8 20 -4 4 4 1 10 -6 12 -6
3 -10 9 -7 14 4 5 0 6 -8 3 -8 -3 -18 -1 -22 5 -3 6 -12 11 -18 11 -7 0 -3 -7
8 -15z"/>
<path d="M3581 1683 c0 -6 -4 -20 -7 -30 -5 -14 -4 -15 5 -7 7 7 11 20 8 30
-3 11 -5 14 -6 7z"/>
<path d="M3446 1655 c-16 -12 -17 -15 -4 -15 8 0 21 7 28 15 16 19 1 19 -24 0z"/>
<path d="M3487 1657 c-6 -15 27 -17 40 -2 5 4 2 5 -4 1 -7 -4 -13 -2 -13 3 0
15 -17 14 -23 -2z"/>
</g>
</svg>
